# xmcd CD database file
#
# Track frame offsets:
#	150
#	19368
#	33319
#	56830
#	72200
#	92246
#	112150
#	137773
#	154750
#
# Disc length: 2241 seconds
#
# Revision: 3
# Processed by: cddbd v1.5.2PL0 Copyright (c) Steve Scherf et al.
# Submitted via: CDex 1.70beta3
#
DISCID=7f08bf09
DTITLE=Aerosmith - The Essential 3
DYEAR=2011
DGENRE=Hard Rock
TTITLE0=Lord Of The Thighs
TTITLE1=Toys In The Attic
TTITLE2=You See Me Crying
TTITLE3=Baby,Please Don't Go
TTITLE4=Devil's Got A New Disguise
TTITLE5=Walk This Way (Live)
TTITLE6=Train Kept A Rollin'
TTITLE7=Come Together
TTITLE8=Theme From Spider-Man
EXTD=YEAR: 2011
EXTT0=
EXTT1=
EXTT2=
EXTT3=
EXTT4=
EXTT5=
EXTT6=
EXTT7=
EXTT8=
PLAYORDER=
